<svg width="21" height="27" viewBox="0 0 21 27" fill="none" xmlns="http://www.w3.org/2000/svg">
<path d="M18.6667 2.25V0H16.3333V2.25H14V0H11.6667V2.25H9.33333V0H7V2.25H4.66667V0H2.33333V2.25H0V23.625C0 24.5201 0.368749 25.3786 1.02513 26.0115C1.6815 26.6444 2.57174 27 3.5 27H17.5C18.4283 27 19.3185 26.6444 19.9749 26.0115C20.6313 25.3786 21 24.5201 21 23.625V2.25H18.6667ZM18.6667 23.625C18.6667 23.9234 18.5438 24.2095 18.325 24.4205C18.1062 24.6315 17.8094 24.75 17.5 24.75H3.5C3.19058 24.75 2.89383 24.6315 2.67504 24.4205C2.45625 24.2095 2.33333 23.9234 2.33333 23.625V4.5H18.6667V23.625ZM16.3333 10.125H4.66667V7.875H16.3333V10.125ZM16.3333 14.625H4.66667V12.375H16.3333V14.625ZM11.6667 19.125H4.66667V16.875H11.6667V19.125Z" fill="#374957"/>
</svg>
