<svg width="31" height="32" viewBox="0 0 31 32" fill="none" xmlns="http://www.w3.org/2000/svg">
<path d="M11.2 15.7833C12.1968 17.8846 13.8613 19.5793 15.9222 20.5915C16.0742 20.6649 16.2424 20.6967 16.4101 20.6837C16.5778 20.6707 16.7394 20.6134 16.8788 20.5173L19.9058 18.4531C20.0395 18.3605 20.1941 18.304 20.355 18.2889C20.5159 18.2738 20.678 18.3005 20.826 18.3666L26.4926 20.851C26.6863 20.9333 26.8481 21.0783 26.9531 21.2637C27.0581 21.4491 27.1006 21.6645 27.0738 21.8769C26.8942 23.3079 26.21 24.6231 25.1492 25.5763C24.0883 26.5296 22.7236 27.0555 21.3104 27.0559C16.943 27.0559 12.7545 25.2848 9.66636 22.1324C6.57818 18.9799 4.84326 14.7042 4.84326 10.2459C4.84358 8.80324 5.35884 7.4101 6.29264 6.32718C7.22643 5.24427 8.51477 4.54579 9.91658 4.36245C10.1246 4.33517 10.3357 4.37846 10.5173 4.48567C10.6989 4.59287 10.8409 4.75804 10.9216 4.95574L13.3553 10.7527C13.4186 10.9015 13.4451 11.0638 13.4324 11.2255C13.4197 11.3871 13.3683 11.5431 13.2826 11.6797L11.2606 14.8192C11.1706 14.9612 11.1177 15.1244 11.1071 15.2932C11.0965 15.462 11.1285 15.6308 11.2 15.7833V15.7833Z" stroke="#5B5B5B" stroke-width="2" stroke-linecap="round" stroke-linejoin="round"/>
</svg>
