<svg width="24" height="30" viewBox="0 0 24 30" fill="none" xmlns="http://www.w3.org/2000/svg">
<g clip-path="url(#clip0_726_6499)">
<path d="M22.713 5.09625C22.4317 4.6743 22.0796 4.33494 21.6815 4.10227C21.2835 3.8696 20.8494 3.74933 20.41 3.75H4.242L4.2 3.31125C4.11405 2.39927 3.76338 1.55842 3.21449 0.948097C2.6656 0.337779 1.95663 0.000427242 1.222 0L1 0C0.734784 0 0.48043 0.131696 0.292893 0.366117C0.105357 0.600537 0 0.918479 0 1.25C0 1.58152 0.105357 1.89946 0.292893 2.13388C0.48043 2.3683 0.734784 2.5 1 2.5H1.222C1.46693 2.50004 1.70334 2.61245 1.88637 2.81589C2.06941 3.01934 2.18634 3.29969 2.215 3.60375L3.591 18.2288C3.73385 19.7497 4.31848 21.1522 5.23391 22.17C6.14934 23.1878 7.33185 23.75 8.557 23.75H19C19.2652 23.75 19.5196 23.6183 19.7071 23.3839C19.8946 23.1495 20 22.8315 20 22.5C20 22.1685 19.8946 21.8505 19.7071 21.6161C19.5196 21.3817 19.2652 21.25 19 21.25H8.557C7.93806 21.2478 7.3348 21.0064 6.82994 20.5588C6.32507 20.1113 5.94331 19.4794 5.737 18.75H17.657C18.8293 18.7501 19.9643 18.2353 20.8638 17.2955C21.7633 16.3558 22.37 15.0509 22.578 13.6088L23.363 8.16625C23.4414 7.62626 23.4237 7.07133 23.3114 6.5408C23.1991 6.01026 22.9948 5.5171 22.713 5.09625ZM21.4 7.7225L20.614 13.165C20.4891 14.0312 20.1245 14.815 19.5839 15.379C19.0433 15.943 18.3612 16.2513 17.657 16.25H5.419L4.478 6.25H20.41C20.5569 6.2489 20.7022 6.28828 20.8355 6.36532C20.9689 6.44236 21.087 6.55518 21.1815 6.69576C21.276 6.83634 21.3446 7.00121 21.3824 7.17867C21.4201 7.35613 21.4262 7.54181 21.4 7.7225Z" fill="#374957"/>
<path d="M7 30.001C8.10456 30.001 8.99999 28.8817 8.99999 27.501C8.99999 26.1203 8.10456 25.001 7 25.001C5.89543 25.001 5 26.1203 5 27.501C5 28.8817 5.89543 30.001 7 30.001Z" fill="#374957"/>
<path d="M17 30.001C18.1046 30.001 19 28.8817 19 27.501C19 26.1203 18.1046 25.001 17 25.001C15.8954 25.001 15 26.1203 15 27.501C15 28.8817 15.8954 30.001 17 30.001Z" fill="#374957"/>
</g>
<defs>
<clipPath id="clip0_726_6499">
<rect width="24" height="30" fill="white"/>
</clipPath>
</defs>
</svg>
