<svg width="31" height="30" viewBox="0 0 31 30" fill="none" xmlns="http://www.w3.org/2000/svg">
<g clip-path="url(#clip0_726_6525)">
<path d="M15.25 15C16.7334 15 18.1834 14.5601 19.4168 13.736C20.6501 12.9119 21.6114 11.7406 22.1791 10.3701C22.7468 8.99968 22.8953 7.49168 22.6059 6.03683C22.3165 4.58197 21.6022 3.2456 20.5533 2.1967C19.5044 1.14781 18.168 0.433503 16.7132 0.144114C15.2583 -0.145275 13.7503 0.00324965 12.3799 0.570907C11.0094 1.13856 9.83809 2.09986 9.01398 3.33323C8.18987 4.5666 7.75 6.01664 7.75 7.5C7.75199 9.48852 8.5428 11.395 9.94889 12.8011C11.355 14.2072 13.2615 14.998 15.25 15ZM15.25 2.5C16.2389 2.5 17.2056 2.79325 18.0279 3.34266C18.8501 3.89206 19.491 4.67296 19.8694 5.58659C20.2478 6.50022 20.3469 7.50555 20.1539 8.47546C19.961 9.44536 19.4848 10.3363 18.7855 11.0355C18.0863 11.7348 17.1954 12.211 16.2255 12.4039C15.2555 12.5969 14.2502 12.4978 13.3366 12.1194C12.423 11.741 11.6421 11.1001 11.0927 10.2779C10.5432 9.45561 10.25 8.48891 10.25 7.5C10.25 6.17392 10.7768 4.90215 11.7145 3.96447C12.6521 3.02679 13.9239 2.5 15.25 2.5V2.5Z" fill="#374957"/>
<path d="M15.25 17.501C12.2673 17.5043 9.40777 18.6906 7.2987 20.7997C5.18964 22.9087 4.00331 25.7683 4 28.751C4 29.0825 4.1317 29.4004 4.36612 29.6349C4.60054 29.8693 4.91848 30.001 5.25 30.001C5.58152 30.001 5.89946 29.8693 6.13388 29.6349C6.3683 29.4004 6.5 29.0825 6.5 28.751C6.5 26.4303 7.42187 24.2047 9.06282 22.5638C10.7038 20.9228 12.9294 20.001 15.25 20.001C17.5706 20.001 19.7962 20.9228 21.4372 22.5638C23.0781 24.2047 24 26.4303 24 28.751C24 29.0825 24.1317 29.4004 24.3661 29.6349C24.6005 29.8693 24.9185 30.001 25.25 30.001C25.5815 30.001 25.8995 29.8693 26.1339 29.6349C26.3683 29.4004 26.5 29.0825 26.5 28.751C26.4967 25.7683 25.3104 22.9087 23.2013 20.7997C21.0922 18.6906 18.2327 17.5043 15.25 17.501V17.501Z" fill="#374957"/>
</g>
<defs>
<clipPath id="clip0_726_6525">
<rect width="30" height="30" fill="white" transform="translate(0.25)"/>
</clipPath>
</defs>
</svg>
