<svg width="30" height="27" viewBox="0 0 30 27" fill="none" xmlns="http://www.w3.org/2000/svg">
<path d="M24.6973 7.9248H4.57342C4.06823 7.9248 3.65869 8.29611 3.65869 8.75414V22.0235C3.65869 22.4815 4.06823 22.8528 4.57342 22.8528H24.6973C25.2025 22.8528 25.6121 22.4815 25.6121 22.0235V8.75414C25.6121 8.29611 25.2025 7.9248 24.6973 7.9248Z" stroke="#5B5B5B" stroke-width="2" stroke-linecap="round" stroke-linejoin="round"/>
<path d="M10.062 11.2423V7.92499C10.062 6.82522 10.5439 5.7705 11.4016 4.99285C12.2593 4.2152 13.4226 3.77832 14.6356 3.77832C15.8486 3.77832 17.012 4.2152 17.8697 4.99285C18.7274 5.7705 19.2093 6.82522 19.2093 7.92499V11.2423" stroke="#5B5B5B" stroke-width="2" stroke-linecap="round" stroke-linejoin="round"/>
</svg>
