<svg width="27" height="30" viewBox="0 0 27 30" fill="none" xmlns="http://www.w3.org/2000/svg">
<path d="M15.4787 24.3747V18.7497C15.4787 18.5011 15.3929 18.2626 15.2401 18.0868C15.0873 17.911 14.8801 17.8122 14.664 17.8122H11.4053C11.1893 17.8122 10.982 17.911 10.8293 18.0868C10.6765 18.2626 10.5906 18.5011 10.5906 18.7497V24.3747C10.5906 24.6233 10.5048 24.8618 10.352 25.0376C10.1992 25.2134 9.99203 25.3122 9.77597 25.3122H4.88792C4.67185 25.3122 4.46464 25.2134 4.31186 25.0376C4.15907 24.8618 4.07324 24.6233 4.07324 24.3747V13.5349C4.07507 13.4051 4.09943 13.2771 4.1449 13.1584C4.19037 13.0396 4.25603 12.9325 4.33801 12.8435L12.4848 4.32392C12.6349 4.16581 12.8311 4.07812 13.0347 4.07812C13.2382 4.07812 13.4344 4.16581 13.5846 4.32392L21.7313 12.8435C21.8133 12.9325 21.879 13.0396 21.9244 13.1584C21.9699 13.2771 21.9943 13.4051 21.9961 13.5349V24.3747C21.9961 24.6233 21.9103 24.8618 21.7575 25.0376C21.6047 25.2134 21.3975 25.3122 21.1814 25.3122H16.2934C16.0773 25.3122 15.8701 25.2134 15.7173 25.0376C15.5645 24.8618 15.4787 24.6233 15.4787 24.3747Z" stroke="#5B5B5B" stroke-width="2" stroke-linecap="round" stroke-linejoin="round"/>
</svg>
